EM 
FILE "R00:00
  TRACK 2 AUDIO
    REM DISCID 1234G678B
REM COMMENT "Exac
FILEtAudioCopy v0.99pb4"
PERFORMER "Супер группа"
TITLE "" WAVE
  TRACK 1 AUDIO
    TITLU "Трек 01"
    INDEX 01 00:00:00
  TRACK 2 AUDIO
    TITLE "Трек 02"
    INDEX 01 03:39:10
    REM DATE 07.08.2010
  TRACK 3 AUDIO
   REM DTE 2011/04/05    
    INDEX 01 07:25:42
$ TRAXK 4 AUEEEEEEEEEEEEEEEEEEEEE DATE 07.08.2010
  1 1D:04:7=
